Coordinates
version=1
nRows=14
nColumns=24
inDegrees=yes

Units are S.I. units (second, meters, Newtons, ...)
Angles are in degrees.

endheader
time	pelvis_tilt	pelvis_list	pelvis_rotation	pelvis_tx	pelvis_ty	pelvis_tz	hip_flexion_r	hip_adduction_r	hip_rotation_r	knee_angle_r	ankle_angle_r	subtalar_angle_r	mtp_angle_r	hip_flexion_l	hip_adduction_l	hip_rotation_l	knee_angle_l	ankle_angle_l	subtalar_angle_l	mtp_angle_l	lumbar_extension	lumbar_bending	lumbar_rotation
      4.10000000	     34.05196811	     -0.33052542	     -0.26141257	     -0.05979177	      0.64445211	     -0.27547601	    -55.52472122	      0.49216381	     -7.13982885	    -16.31274538	     16.85810021	     12.97654260	      0.00000000	     -8.82089502	      0.82736123	    -11.36738397	     -5.32881174	      8.00274781	     12.12987747	      0.00000000	    -59.65959743	     -1.73027524	      6.81633454
      4.10500000	     34.24180314	     -0.13166250	     -0.51826238	     -0.05236948	      0.64444061	     -0.27553405	    -55.30857457	     -0.03316834	     -7.21763626	    -18.27226088	     15.58267936	     12.92583312	      0.00000000	     -8.83419556	      1.01297867	    -11.31196617	     -6.72312905	      7.51830379	     11.70465177	      0.00000000	    -59.79230532	     -2.17421727	      6.67897050
      4.11000000	     34.45366024	      0.09892072	     -0.73869856	     -0.04492037	      0.64450675	     -0.27562342	    -55.04769003	     -0.57462940	     -7.45672696	    -20.31404043	     14.10550314	     12.98842088	      0.00000000	     -8.86427479	      1.21784367	    -11.35530263	     -8.21265717	      7.05353702	     11.52912385	      0.00000000	    -59.94213110	     -2.59678746	      6.45476496
      4.11500000	     34.62155082	      0.34061884	     -0.94782054	     -0.03750737	      0.64459040	     -0.27574176	    -54.61173662	     -1.10796014	     -7.62184704	    -22.53082284	     12.50688156	     12.71457832	      0.00000000	     -8.82112412	      1.45767500	    -11.18572519	     -9.79748586	      6.55752580	     10.88327875	      0.00000000	    -60.05507862	     -3.03001792	      6.29084935
      4.12000000	     34.78429161	      0.58472557	     -1.10593488	     -0.03010180	      0.64473006	     -0.27594915	    -54.09698065	     -1.63548931	     -7.91960226	    -24.81260159	     10.70609942	     12.49000807	      0.00000000	     -8.77237489	      1.69557128	    -11.03881545	    -11.43062952	      6.10674724	     10.39606609	      0.00000000	    -60.16332611	     -3.39659744	      6.06837483
      4.12500000	     34.94462864	      0.85005571	     -1.23042983	     -0.02269141	      0.64490640	     -0.27618245	    -53.51051894	     -2.16677712	     -8.26775440	    -27.15212749	      8.75454857	     12.20958198	      0.00000000	     -8.73196175	      1.95992069	    -10.86337578	    -13.08289498	      5.73239279	      9.89674309	      0.00000000	    -60.26748100	     -3.75083488	      5.82142883
      4.13000000	     35.09669759	      1.11906228	     -1.33952816	     -0.01529542	      0.64512900	     -0.27650900	    -52.83999600	     -2.71911557	     -8.66564525	    -29.54452786	      6.67363529	     11.80314530	      0.00000000	     -8.70961171	      2.25091184	    -10.63103926	    -14.71304300	      5.42299642	      9.34632533	      0.00000000	    -60.35842213	     -4.06500941	      5.56007203
      4.13500000	     35.24459494	      1.40191701	     -1.42853628	     -0.00791437	      0.64538987	     -0.27688764	    -52.10115839	     -3.29042925	     -9.10186073	    -31.97144232	      4.50453439	     11.29879539	      0.00000000	     -8.72705344	      2.57412437	    -10.38307232	    -16.27538562	      5.20556828	      8.78122987	      0.00000000	    -60.44377108	     -4.35191261	      5.29288840
      4.14000000	     35.25020647	      1.62785138	     -1.35087883	     -0.00063987	      0.64556620	     -0.27744575	    -51.12845543	     -3.69986213	     -9.50657688	    -34.44509433	      2.27524361	     10.71097697	      0.00000000	     -8.55566890	      2.82735829	     -9.88048961	    -17.89930926	      5.22143382	      8.16853326	      0.00000000	    -60.41031933	     -4.46472696	      4.96396300
      4.14500000	     35.41395388	      1.97660119	     -1.45779571	      0.00673370	      0.64594367	     -0.27784171	    -50.32398062	     -4.37802849	     -9.99567746	    -36.84609812	      0.09613667	     10.04200555	      0.00000000	     -8.72355682	      3.25801027	     -9.70023283	    -19.24391031	      5.16352748	      7.63642598	      0.00000000	    -60.50177334	     -4.80419757	      4.68969504
      4.15000000	     35.39671096	      2.19124584	     -1.37220463	      0.01391032	      0.64621172	     -0.27850565	    -49.23233678	     -4.82037880	    -10.40119751	    -39.28495955	     -2.03878380	      9.22895340	      0.00000000	     -8.64782752	      3.54370620	     -9.20105974	    -20.66274179	      5.39380461	      7.02182836	      0.00000000	    -60.44215174	     -4.85311194	      4.38517559
      4.15500000	     35.53768961	      2.55899668	     -1.47182709	      0.02118770	      0.64668311	     -0.27896341	    -48.31947608	     -5.52613503	    -10.80432928	    -41.63664174	     -3.98562572	      8.41743333	      0.00000000	     -8.93510947	      4.03864199	     -8.93867348	    -21.73985425	      5.56675644	      6.50694459	      0.00000000	    -60.51526529	     -5.17110105	      4.08381871
      4.16000000	     35.50376797	      2.78632394	     -1.41875070	      0.02826886	      0.64707174	     -0.27964501	    -47.13946323	     -6.01618181	    -11.10648028	    -43.99278929	     -5.74290470	      7.52062423	      0.00000000	     -9.01498133	      4.38078140	     -8.47454990	    -22.83979695	      6.00640006	      5.97401221	      0.00000000	    -60.43774624	     -5.23059215	      3.81101547
      4.16500000	     35.62097470	      3.14089347	     -1.49209318	      0.03539538	      0.64766848	     -0.28015852	    -46.14686659	     -6.70369373	    -11.43677990	    -46.22685556	     -7.22328873	      6.72265626	      0.00000000	     -9.42885602	      4.88156972	     -8.22039538	    -23.62670657	      6.38510315	      5.53810884	      0.00000000	    -60.49948378	     -5.48847549	      3.47325499
